<svg width="26" height="26" viewBox="0 0 26 26" fill="none" xmlns="http://www.w3.org/2000/svg">
<g clip-path="url(#clip0_2685_12499)">
<g clip-path="url(#clip1_2685_12499)">
<path fill-rule="evenodd" clip-rule="evenodd" d="M7.81667 4.3334C7.81667 3.86396 8.19722 3.4834 8.66667 3.4834H13C13.4694 3.4834 13.85 3.86396 13.85 4.3334V8.66673C13.85 9.13617 13.4694 9.51673 13 9.51673C12.5306 9.51673 12.15 9.13617 12.15 8.66673V5.1834H8.66667C8.19722 5.1834 7.81667 4.80284 7.81667 4.3334Z" fill="#126FF7"/>
<path fill-rule="evenodd" clip-rule="evenodd" d="M6.5 9.51665C5.77283 9.51665 5.18334 10.1061 5.18334 10.8333V19.5C5.18334 20.2272 5.77283 20.8167 6.5 20.8167H19.5C20.2272 20.8167 20.8167 20.2272 20.8167 19.5V10.8333C20.8167 10.1061 20.2272 9.51665 19.5 9.51665H6.5ZM3.48334 10.8333C3.48334 9.16726 4.83394 7.81665 6.5 7.81665H19.5C21.1661 7.81665 22.5167 9.16726 22.5167 10.8333V19.5C22.5167 21.166 21.1661 22.5167 19.5 22.5167H6.5C4.83394 22.5167 3.48334 21.166 3.48334 19.5V10.8333Z" fill="#126FF7"/>
<path fill-rule="evenodd" clip-rule="evenodd" d="M1.31667 15.1667C1.31667 14.6972 1.69722 14.3167 2.16667 14.3167H4.33333C4.80277 14.3167 5.18333 14.6972 5.18333 15.1667C5.18333 15.6361 4.80277 16.0167 4.33333 16.0167H2.16667C1.69722 16.0167 1.31667 15.6361 1.31667 15.1667Z" fill="#126FF7"/>
<path fill-rule="evenodd" clip-rule="evenodd" d="M20.8167 15.1667C20.8167 14.6972 21.1972 14.3167 21.6667 14.3167H23.8333C24.3028 14.3167 24.6833 14.6972 24.6833 15.1667C24.6833 15.6361 24.3028 16.0167 23.8333 16.0167H21.6667C21.1972 16.0167 20.8167 15.6361 20.8167 15.1667Z" fill="#126FF7"/>
<path fill-rule="evenodd" clip-rule="evenodd" d="M16.25 13.2334C16.7194 13.2334 17.1 13.614 17.1 14.0834V16.2501C17.1 16.7195 16.7194 17.1001 16.25 17.1001C15.7806 17.1001 15.4 16.7195 15.4 16.2501V14.0834C15.4 13.614 15.7806 13.2334 16.25 13.2334Z" fill="#126FF7"/>
<path fill-rule="evenodd" clip-rule="evenodd" d="M9.74999 13.2334C10.2194 13.2334 10.6 13.614 10.6 14.0834V16.2501C10.6 16.7195 10.2194 17.1001 9.74999 17.1001C9.28055 17.1001 8.89999 16.7195 8.89999 16.2501V14.0834C8.89999 13.614 9.28055 13.2334 9.74999 13.2334Z" fill="#126FF7"/>
</g>
</g>
<defs>
<clipPath id="clip0_2685_12499">
<rect width="26" height="26" fill="white"/>
</clipPath>
<clipPath id="clip1_2685_12499">
<rect width="26" height="26" fill="white"/>
</clipPath>
</defs>
</svg>
