<svg width="71" height="71" viewBox="0 0 71 71" fill="none" xmlns="http://www.w3.org/2000/svg">
<rect x="0.121094" y="0.96875" width="70" height="70" rx="35" fill="#EDF3FE"/>
<path d="M22.6211 32.2187C23.6157 32.2187 24.5695 32.6138 25.2727 33.3171C25.976 34.0204 26.3711 34.9742 26.3711 35.9687C26.3711 36.9633 25.976 37.9171 25.2727 38.6204C24.5695 39.3237 23.6157 39.7187 22.6211 39.7187V42.2187C22.6211 42.8818 22.8845 43.5177 23.3533 43.9865C23.8222 44.4554 24.4581 44.7187 25.1211 44.7187H45.1211C45.7841 44.7187 46.42 44.4554 46.8889 43.9865C47.3577 43.5177 47.6211 42.8818 47.6211 42.2187V39.7187C46.6265 39.7187 45.6727 39.3237 44.9694 38.6204C44.2662 37.9171 43.8711 36.9633 43.8711 35.9687C43.8711 34.9742 44.2662 34.0204 44.9694 33.3171C45.6727 32.6138 46.6265 32.2187 47.6211 32.2187V29.7187C47.6211 29.0557 47.3577 28.4198 46.8889 27.951C46.42 27.4821 45.7841 27.2188 45.1211 27.2188H25.1211C24.4581 27.2188 23.8222 27.4821 23.3533 27.951C22.8845 28.4198 22.6211 29.0557 22.6211 29.7187V32.2187Z" stroke="#002C7D" stroke-width="2" stroke-linecap="round" stroke-linejoin="round"/>
<path d="M31.3711 32.2188H31.3853" stroke="#002C7D" stroke-width="2" stroke-linecap="round" stroke-linejoin="round"/>
<path d="M38.8711 32.2188L31.3711 39.7188" stroke="#002C7D" stroke-width="2" stroke-linecap="round" stroke-linejoin="round"/>
<path d="M38.8711 39.7188H38.8853" stroke="#002C7D" stroke-width="2" stroke-linecap="round" stroke-linejoin="round"/>
</svg>
