<svg width="71" height="71" viewBox="0 0 71 71" fill="none" xmlns="http://www.w3.org/2000/svg">
<rect x="0.875" y="0.96875" width="70" height="70" rx="35" fill="#EDF3FE"/>
<path d="M45.875 28.4688H25.875C24.4943 28.4688 23.375 29.588 23.375 30.9688V40.9688C23.375 42.3495 24.4943 43.4688 25.875 43.4688H45.875C47.2557 43.4688 48.375 42.3495 48.375 40.9688V30.9688C48.375 29.588 47.2557 28.4688 45.875 28.4688Z" stroke="#002C7D" stroke-width="2" stroke-linecap="round" stroke-linejoin="round"/>
<path d="M35.875 38.4688C37.2557 38.4688 38.375 37.3495 38.375 35.9688C38.375 34.588 37.2557 33.4688 35.875 33.4688C34.4943 33.4688 33.375 34.588 33.375 35.9688C33.375 37.3495 34.4943 38.4688 35.875 38.4688Z" stroke="#002C7D" stroke-width="2" stroke-linecap="round" stroke-linejoin="round"/>
<path d="M28.375 35.9688H28.3875M43.375 35.9688H43.3875" stroke="#002C7D" stroke-width="2" stroke-linecap="round" stroke-linejoin="round"/>
</svg>
