<svg width="26" height="26" viewBox="0 0 26 26" fill="none" xmlns="http://www.w3.org/2000/svg">
<path fill-rule="evenodd" clip-rule="evenodd" d="M12.9993 4.05957C12.4952 4.05957 11.9992 4.18646 11.557 4.42857C11.1148 4.67067 10.7407 5.02018 10.4692 5.44488C10.2521 5.78441 9.84572 5.95177 9.45249 5.86361C8.95911 5.753 8.44579 5.76875 7.96012 5.9094C7.47446 6.05006 7.03217 6.31106 6.67426 6.66822C6.31636 7.02537 6.05443 7.46712 5.91275 7.95249C5.77108 8.43786 5.75426 8.95114 5.86384 9.44475C5.95137 9.83905 5.7822 10.2459 5.44091 10.4619C5.01294 10.7327 4.66043 11.1074 4.41615 11.5511C4.17188 11.9948 4.04379 12.493 4.04379 12.9995C4.04379 13.5059 4.17188 14.0042 4.41615 14.4478C4.66043 14.8915 5.01294 15.2662 5.44091 15.537C5.7822 15.753 5.95137 16.1599 5.86384 16.5542C5.75426 17.0478 5.77108 17.5611 5.91275 18.0464C6.05443 18.5318 6.31636 18.9736 6.67426 19.3307C7.03217 19.6879 7.47446 19.9489 7.96012 20.0895C8.44579 20.2302 8.95911 20.2459 9.45249 20.1353C9.84652 20.047 10.2536 20.2152 10.4704 20.5559C10.7416 20.9823 11.116 21.3333 11.5589 21.5765C12.0018 21.8196 12.4989 21.9471 13.0042 21.9471C13.5095 21.9471 14.0066 21.8196 14.4495 21.5765C14.8924 21.3333 15.2668 20.9823 15.538 20.5559C15.7544 20.2158 16.1605 20.0475 16.554 20.1349C17.0476 20.2445 17.5609 20.2276 18.0462 20.086C18.5316 19.9443 18.9733 19.6824 19.3305 19.3245C19.6877 18.9666 19.9487 18.5243 20.0893 18.0386C20.23 17.5529 20.2457 17.0396 20.1351 16.5462C20.0469 16.153 20.2143 15.7466 20.5538 15.5295C20.9785 15.258 21.3281 14.8839 21.5702 14.4417C21.8123 13.9996 21.9392 13.5036 21.9392 12.9995C21.9392 12.4954 21.8123 11.9994 21.5702 11.5572C21.3281 11.1151 20.9785 10.741 20.5538 10.4694C20.2141 10.2522 20.0468 9.84552 20.1352 9.45213C20.2463 8.958 20.2307 8.4438 20.0897 7.95736C19.9487 7.47092 19.6869 7.02804 19.3288 6.66992C18.9707 6.31179 18.5278 6.05006 18.0414 5.90906C17.5549 5.76807 17.0407 5.75239 16.5466 5.86348C16.1532 5.95193 15.7465 5.78459 15.5293 5.44488C15.2578 5.02018 14.8837 4.67067 14.4415 4.42857C13.9993 4.18646 13.5034 4.05957 12.9993 4.05957ZM10.6368 2.74798C11.3611 2.35142 12.1735 2.14355 12.9993 2.14355C13.825 2.14355 14.6374 2.35142 15.3617 2.74798C15.897 3.04109 16.3714 3.43031 16.7621 3.89434C17.3701 3.83934 17.9849 3.89782 18.5748 4.0688C19.3716 4.29976 20.097 4.72848 20.6836 5.31509C21.2702 5.90171 21.699 6.62715 21.9299 7.42396C22.1009 8.01385 22.1594 8.62866 22.1044 9.2366C22.5684 9.6273 22.9576 10.1017 23.2507 10.637C23.6473 11.3613 23.8552 12.1737 23.8552 12.9995C23.8552 13.8252 23.6473 14.6376 23.2507 15.3619C22.9576 15.8973 22.5682 16.3718 22.1041 16.7626C22.1587 17.3693 22.1002 17.9829 21.9297 18.5716C21.6993 19.3671 21.2718 20.0916 20.6867 20.6779C20.1017 21.2641 19.3781 21.6932 18.5831 21.9252C17.9948 22.097 17.3814 22.1567 16.7746 22.1034C16.3837 22.5699 15.9084 22.9613 15.3717 23.256C14.6462 23.6543 13.8319 23.8631 13.0042 23.8631C12.1765 23.8631 11.3623 23.6543 10.6368 23.256C10.1004 22.9615 9.6254 22.5705 9.23468 22.1044C8.62841 22.1588 8.01538 22.1003 7.42712 21.9299C6.63159 21.6995 5.90711 21.272 5.32086 20.687C4.7346 20.1019 4.30555 19.3783 4.07349 18.5833C3.90191 17.9954 3.84212 17.3826 3.89517 16.7763C3.42681 16.3854 3.03374 15.9096 2.73772 15.3719C2.3376 14.6452 2.12778 13.8291 2.12778 12.9995C2.12778 12.1699 2.3376 11.3537 2.73772 10.627C3.03374 10.0893 3.42681 9.61351 3.89517 9.22267C3.84212 8.61634 3.90191 8.00349 4.07349 7.41564C4.30555 6.62059 4.7346 5.89701 5.32086 5.31198C5.90711 4.72695 6.63159 4.29942 7.42712 4.06902C8.01586 3.89852 8.62939 3.84006 9.23614 3.89463C9.62689 3.43048 10.1014 3.04115 10.6368 2.74798Z" fill="#FF3030"/>
<path fill-rule="evenodd" clip-rule="evenodd" d="M16.648 10.3419C17.0221 10.716 17.0221 11.3226 16.648 11.6967L12.687 15.6578C12.3128 16.0319 11.7063 16.0319 11.3321 15.6578L9.35161 13.6772C8.97748 13.3031 8.97748 12.6965 9.35161 12.3224C9.72573 11.9483 10.3323 11.9483 10.7064 12.3224L12.0095 13.6255L15.2932 10.3419C15.6673 9.96775 16.2739 9.96775 16.648 10.3419Z" fill="#FF3030"/>
</svg>
