<svg width="26" height="26" viewBox="0 0 26 26" fill="none" xmlns="http://www.w3.org/2000/svg">
<g clip-path="url(#clip0_2685_11956)">
<path fill-rule="evenodd" clip-rule="evenodd" d="M6.0954 6.09331C5.42306 6.76364 5.00615 7.84354 5.00615 9.50906V14.03C5.00615 16.2103 5.45152 17.2204 6.05052 17.743C6.68086 18.2929 7.72748 18.5329 9.5253 18.5329H9.97876C10.2824 18.5329 10.5688 18.6265 10.7876 18.7346C11.003 18.8411 11.2574 19.0133 11.4444 19.2665L12.8017 21.0708C12.9519 21.2705 13.0877 21.2997 13.1529 21.2997C13.2182 21.2997 13.354 21.2705 13.5042 21.0708L14.8646 19.2624L14.8681 19.2578C15.2126 18.8058 15.7545 18.5329 16.3271 18.5329H16.7806C18.4529 18.5329 19.5376 18.1166 20.2105 17.4458C20.8828 16.7754 21.2997 15.6956 21.2997 14.03V9.50906C21.2997 7.84354 20.8828 6.76364 20.2105 6.09331C19.5376 5.42248 18.4529 5.00618 16.7806 5.00618H9.5253C7.85296 5.00618 6.76825 5.42248 6.0954 6.09331ZM4.79306 4.78706C5.93402 3.64951 7.57002 3.16162 9.5253 3.16162H16.7806C18.7358 3.16162 20.3718 3.64951 21.5128 4.78706C22.6543 5.92512 23.1443 7.55781 23.1443 9.50906V14.03C23.1443 15.9813 22.6543 17.614 21.5128 18.752C20.3718 19.8896 18.7358 20.3775 16.7806 20.3775H16.334L14.9782 22.1797C14.5299 22.7757 13.8767 23.1443 13.1529 23.1443C12.4292 23.1443 11.776 22.7757 11.3276 22.1797L9.9867 20.3971C9.98196 20.3943 9.97643 20.3913 9.97029 20.3882C9.96287 20.3846 9.9556 20.3814 9.94897 20.3789L9.94512 20.3775H9.5253C7.69551 20.3775 6.0214 20.1654 4.83793 19.133C3.62312 18.0732 3.16159 16.3707 3.16159 14.03V9.50906C3.16159 7.55781 3.65158 5.92512 4.79306 4.78706ZM7.77097 9.46378C7.77097 8.95442 8.18388 8.5415 8.69324 8.5415H17.6086C18.118 8.5415 18.5309 8.95442 18.5309 9.46378C18.5309 9.97314 18.118 10.3861 17.6086 10.3861H8.69324C8.18388 10.3861 7.77097 9.97314 7.77097 9.46378ZM8.69324 13.1528C8.18388 13.1528 7.77097 13.5658 7.77097 14.0751C7.77097 14.5845 8.18388 14.9974 8.69324 14.9974H14.0732C14.5826 14.9974 14.9955 14.5845 14.9955 14.0751C14.9955 13.5658 14.5826 13.1528 14.0732 13.1528H8.69324Z" fill="#FF9500"/>
</g>
<defs>
<clipPath id="clip0_2685_11956">
<rect width="26" height="26" fill="white"/>
</clipPath>
</defs>
</svg>
