<svg width="26" height="26" viewBox="0 0 26 26" fill="none" xmlns="http://www.w3.org/2000/svg">
<g clip-path="url(#clip0_2685_11979)">
<mask id="path-1-inside-1_2685_11979" fill="white">
<path fill-rule="evenodd" clip-rule="evenodd" d="M13.0833 2.41748C15.8866 2.41863 18.5177 3.51083 20.4963 5.49323C22.4748 7.47554 23.5638 10.1105 23.5628 12.9129C23.5604 18.6956 18.8589 23.4006 13.0834 23.4006H13.0792C11.3253 23.4 9.60192 22.9596 8.07131 22.1241L2.51604 23.5825L4.00275 18.1478C3.08567 16.5573 2.60311 14.7531 2.60392 12.9045C2.60618 7.12202 7.30728 2.41748 13.0833 2.41748ZM13.0798 21.6294H13.0834C17.8841 21.6294 21.7914 17.7188 21.7934 12.9122C21.7943 10.583 20.8892 8.39286 19.2447 6.74517C17.6002 5.09748 15.4133 4.18953 13.0869 4.1888C8.28255 4.1888 4.37517 8.09894 4.3733 12.9051C4.37262 14.5522 4.83309 16.1564 5.70495 17.5442L5.91207 17.8741L5.03213 21.0908L8.32871 20.2254L8.64672 20.4143C9.98404 21.2085 11.517 21.6288 13.0798 21.6294ZM16.0324 14.2338C16.2723 14.3207 17.5596 14.9498 17.8214 15.08C17.8725 15.1054 17.9203 15.1284 17.9646 15.1496C18.1472 15.2373 18.2706 15.2965 18.3232 15.3838C18.3887 15.4922 18.3887 16.013 18.1705 16.6207C17.9523 17.2281 16.9063 17.7826 16.4033 17.8573C15.9521 17.9243 15.3814 17.9523 14.7541 17.7543C14.3739 17.6344 13.8862 17.4744 13.2615 17.2064C10.8069 16.1535 9.14804 13.79 8.8347 13.3435C8.81277 13.3123 8.79743 13.2904 8.78887 13.2791L8.78681 13.2763C8.64842 13.0929 7.71976 11.8622 7.71976 10.5885C7.71976 9.39056 8.31217 8.76257 8.58488 8.47348C8.60358 8.45366 8.62077 8.43543 8.63617 8.41872C8.87611 8.1584 9.15982 8.09328 9.33434 8.09328C9.50886 8.09328 9.68364 8.09485 9.83613 8.10241C9.85497 8.10335 9.87457 8.10325 9.89484 8.10313C10.0474 8.10228 10.2376 8.10123 10.4253 8.54887C10.4971 8.72038 10.6021 8.97422 10.7129 9.24223C10.9386 9.78814 11.1886 10.3928 11.2325 10.4801C11.298 10.6103 11.3416 10.7622 11.2543 10.9358C11.2412 10.9619 11.2291 10.9865 11.2175 11.01C11.152 11.1429 11.1037 11.2407 10.9925 11.3697C10.9489 11.4203 10.9038 11.4748 10.8588 11.5293C10.7685 11.6384 10.6783 11.7476 10.5998 11.8253C10.4687 11.9551 10.3322 12.0958 10.4849 12.3561C10.6377 12.6166 11.1631 13.4683 11.9415 14.158C12.7781 14.8993 13.5053 15.2126 13.8739 15.3714C13.9459 15.4025 14.0042 15.4276 14.047 15.4489C14.3088 15.5792 14.4615 15.5573 14.6142 15.3838C14.767 15.2102 15.2688 14.6243 15.4433 14.364C15.6178 14.1036 15.7924 14.147 16.0324 14.2338Z"/>
</mask>
<path fill-rule="evenodd" clip-rule="evenodd" d="M13.0833 2.41748C15.8866 2.41863 18.5177 3.51083 20.4963 5.49323C22.4748 7.47554 23.5638 10.1105 23.5628 12.9129C23.5604 18.6956 18.8589 23.4006 13.0834 23.4006H13.0792C11.3253 23.4 9.60192 22.9596 8.07131 22.1241L2.51604 23.5825L4.00275 18.1478C3.08567 16.5573 2.60311 14.7531 2.60392 12.9045C2.60618 7.12202 7.30728 2.41748 13.0833 2.41748ZM13.0798 21.6294H13.0834C17.8841 21.6294 21.7914 17.7188 21.7934 12.9122C21.7943 10.583 20.8892 8.39286 19.2447 6.74517C17.6002 5.09748 15.4133 4.18953 13.0869 4.1888C8.28255 4.1888 4.37517 8.09894 4.3733 12.9051C4.37262 14.5522 4.83309 16.1564 5.70495 17.5442L5.91207 17.8741L5.03213 21.0908L8.32871 20.2254L8.64672 20.4143C9.98404 21.2085 11.517 21.6288 13.0798 21.6294ZM16.0324 14.2338C16.2723 14.3207 17.5596 14.9498 17.8214 15.08C17.8725 15.1054 17.9203 15.1284 17.9646 15.1496C18.1472 15.2373 18.2706 15.2965 18.3232 15.3838C18.3887 15.4922 18.3887 16.013 18.1705 16.6207C17.9523 17.2281 16.9063 17.7826 16.4033 17.8573C15.9521 17.9243 15.3814 17.9523 14.7541 17.7543C14.3739 17.6344 13.8862 17.4744 13.2615 17.2064C10.8069 16.1535 9.14804 13.79 8.8347 13.3435C8.81277 13.3123 8.79743 13.2904 8.78887 13.2791L8.78681 13.2763C8.64842 13.0929 7.71976 11.8622 7.71976 10.5885C7.71976 9.39056 8.31217 8.76257 8.58488 8.47348C8.60358 8.45366 8.62077 8.43543 8.63617 8.41872C8.87611 8.1584 9.15982 8.09328 9.33434 8.09328C9.50886 8.09328 9.68364 8.09485 9.83613 8.10241C9.85497 8.10335 9.87457 8.10325 9.89484 8.10313C10.0474 8.10228 10.2376 8.10123 10.4253 8.54887C10.4971 8.72038 10.6021 8.97422 10.7129 9.24223C10.9386 9.78814 11.1886 10.3928 11.2325 10.4801C11.298 10.6103 11.3416 10.7622 11.2543 10.9358C11.2412 10.9619 11.2291 10.9865 11.2175 11.01C11.152 11.1429 11.1037 11.2407 10.9925 11.3697C10.9489 11.4203 10.9038 11.4748 10.8588 11.5293C10.7685 11.6384 10.6783 11.7476 10.5998 11.8253C10.4687 11.9551 10.3322 12.0958 10.4849 12.3561C10.6377 12.6166 11.1631 13.4683 11.9415 14.158C12.7781 14.8993 13.5053 15.2126 13.8739 15.3714C13.9459 15.4025 14.0042 15.4276 14.047 15.4489C14.3088 15.5792 14.4615 15.5573 14.6142 15.3838C14.767 15.2102 15.2688 14.6243 15.4433 14.364C15.6178 14.1036 15.7924 14.147 16.0324 14.2338Z" fill="#34C264"/>
<path d="M20.4963 5.49323L20.0716 5.91708L20.0716 5.91709L20.4963 5.49323ZM13.0833 2.41748L13.0836 1.81748H13.0833V2.41748ZM23.5628 12.9129L24.1628 12.9132L24.1628 12.9132L23.5628 12.9129ZM13.0792 23.4006L13.079 24.0006H13.0792V23.4006ZM8.07131 22.1241L8.35879 21.5974L8.14954 21.4832L7.91896 21.5437L8.07131 22.1241ZM2.51604 23.5825L1.9373 23.4241L1.66304 24.4267L2.66839 24.1628L2.51604 23.5825ZM4.00275 18.1478L4.58148 18.3061L4.64749 18.0648L4.52253 17.848L4.00275 18.1478ZM2.60392 12.9045L3.20392 12.9048L3.20392 12.9048L2.60392 12.9045ZM13.0798 21.6294L13.0796 22.2294H13.0798V21.6294ZM21.7934 12.9122L22.3934 12.9125L22.3934 12.9125L21.7934 12.9122ZM19.2447 6.74517L19.6694 6.32132L19.6694 6.32132L19.2447 6.74517ZM13.0869 4.1888L13.0871 3.5888H13.0869V4.1888ZM4.3733 12.9051L4.9733 12.9054L4.9733 12.9054L4.3733 12.9051ZM5.70495 17.5442L6.21309 17.2252L6.21302 17.2251L5.70495 17.5442ZM5.91207 17.8741L6.49081 18.0324L6.56034 17.7782L6.42021 17.555L5.91207 17.8741ZM5.03213 21.0908L4.45339 20.9325L4.17913 21.9351L5.18448 21.6711L5.03213 21.0908ZM8.32871 20.2254L8.63512 19.7095L8.41923 19.5813L8.17636 19.6451L8.32871 20.2254ZM8.64672 20.4143L8.34031 20.9301L8.34035 20.9302L8.64672 20.4143ZM17.8214 15.08L18.0886 14.5428L18.0886 14.5427L17.8214 15.08ZM16.0324 14.2338L16.2366 13.6696L16.2364 13.6696L16.0324 14.2338ZM17.9646 15.1496L18.2243 14.6087L18.2243 14.6087L17.9646 15.1496ZM18.3232 15.3838L17.8094 15.6937L17.8097 15.6941L18.3232 15.3838ZM18.1705 16.6207L18.7352 16.8235L18.7352 16.8235L18.1705 16.6207ZM16.4033 17.8573L16.3152 17.2638L16.3152 17.2638L16.4033 17.8573ZM14.7541 17.7543L14.9348 17.1821L14.9345 17.182L14.7541 17.7543ZM13.2615 17.2064L13.4981 16.655L13.4981 16.655L13.2615 17.2064ZM8.8347 13.3435L9.32581 12.9988L9.32581 12.9988L8.8347 13.3435ZM8.78887 13.2791L9.26803 12.918L9.26783 12.9177L8.78887 13.2791ZM8.78681 13.2763L9.26576 12.915L9.26575 12.9149L8.78681 13.2763ZM8.58488 8.47348L9.02133 8.8852L9.02133 8.8852L8.58488 8.47348ZM8.63617 8.41872L8.19498 8.01209L8.19495 8.01212L8.63617 8.41872ZM9.83613 8.10241L9.86621 7.50316L9.86585 7.50315L9.83613 8.10241ZM9.89484 8.10313L9.89817 8.70312L9.89818 8.70312L9.89484 8.10313ZM10.4253 8.54887L10.9787 8.31707L10.9786 8.31689L10.4253 8.54887ZM10.7129 9.24223L11.2674 9.01298L11.2674 9.01298L10.7129 9.24223ZM11.2325 10.4801L10.6965 10.7497L10.6966 10.7499L11.2325 10.4801ZM11.2543 10.9358L11.7903 11.2055L11.7904 11.2053L11.2543 10.9358ZM11.2175 11.01L11.7556 11.2753L11.7556 11.2753L11.2175 11.01ZM10.9925 11.3697L10.5381 10.9779L10.538 10.9779L10.9925 11.3697ZM10.8588 11.5293L10.3963 11.147L10.3963 11.147L10.8588 11.5293ZM10.5998 11.8253L11.0218 12.2518L11.0218 12.2518L10.5998 11.8253ZM10.4849 12.3561L9.96737 12.6597L9.96738 12.6597L10.4849 12.3561ZM11.9415 14.158L11.5436 14.607L11.9415 14.158ZM13.8739 15.3714L13.6364 15.9224L13.6364 15.9225L13.8739 15.3714ZM14.047 15.4489L14.3144 14.9117L14.3142 14.9116L14.047 15.4489ZM14.6142 15.3838L15.0646 15.7803L15.0647 15.7802L14.6142 15.3838ZM15.4433 14.364L15.9417 14.6981L15.9417 14.6981L15.4433 14.364ZM20.921 5.06938C18.8299 2.97424 16.0461 1.8187 13.0836 1.81748L13.0831 3.01748C15.7272 3.01856 18.2056 4.04743 20.0716 5.91708L20.921 5.06938ZM24.1628 12.9132C24.1639 9.95186 23.0119 7.16431 20.921 5.06938L20.0716 5.91709C21.9377 7.78678 22.9637 10.2692 22.9628 12.9127L24.1628 12.9132ZM13.0834 24.0006C19.1908 24.0006 24.1602 19.0264 24.1628 12.9132L22.9628 12.9127C22.9605 18.3647 18.5269 22.8006 13.0834 22.8006V24.0006ZM13.0792 24.0006H13.0834V22.8006H13.0792V24.0006ZM7.78383 22.6507C9.40274 23.5344 11.2249 24 13.079 24.0006L13.0794 22.8006C11.4256 22.8 9.8011 22.3847 8.35879 21.5974L7.78383 22.6507ZM2.66839 24.1628L8.22366 22.7044L7.91896 21.5437L2.36368 23.0021L2.66839 24.1628ZM3.42401 17.9894L1.9373 23.4241L3.09477 23.7408L4.58148 18.3061L3.42401 17.9894ZM2.00392 12.9043C2.00307 14.8577 2.51311 16.7655 3.48296 18.4475L4.52253 17.848C3.65822 16.3491 3.20316 14.6484 3.20392 12.9048L2.00392 12.9043ZM13.0833 1.81748C6.97537 1.81748 2.0063 6.79114 2.00392 12.9043L3.20392 12.9048C3.20605 7.4529 7.6392 3.01748 13.0833 3.01748V1.81748ZM13.0834 21.0294H13.0798V22.2294H13.0834V21.0294ZM21.1934 12.912C21.1915 17.388 17.5522 21.0294 13.0834 21.0294V22.2294C18.2161 22.2294 22.3913 18.0496 22.3934 12.9125L21.1934 12.912ZM18.82 7.16901C20.3521 8.70409 21.1942 10.7417 21.1934 12.912L22.3934 12.9125C22.3944 10.4243 21.4262 8.08163 19.6694 6.32132L18.82 7.16901ZM13.0867 4.7888C15.2537 4.78948 17.288 5.63396 18.82 7.16902L19.6694 6.32132C17.9125 4.56099 15.5729 3.58958 13.0871 3.5888L13.0867 4.7888ZM4.9733 12.9054C4.97504 8.42998 8.6143 4.7888 13.0869 4.7888V3.5888C7.95081 3.5888 3.7753 7.76789 3.7733 12.9049L4.9733 12.9054ZM6.21302 17.2251C5.40158 15.9334 4.97266 14.4401 4.9733 12.9054L3.7733 12.9049C3.77257 14.6644 4.2646 16.3794 5.19689 17.8634L6.21302 17.2251ZM6.42021 17.555L6.21309 17.2252L5.19682 17.8633L5.40394 18.1932L6.42021 17.555ZM5.61086 21.2491L6.49081 18.0324L5.33334 17.7158L4.45339 20.9325L5.61086 21.2491ZM8.17636 19.6451L4.87978 20.5105L5.18448 21.6711L8.48106 20.8057L8.17636 19.6451ZM8.95314 19.8984L8.63512 19.7095L8.0223 20.7412L8.34031 20.9301L8.95314 19.8984ZM13.0801 21.0294C11.6245 21.0288 10.1973 20.6373 8.95309 19.8984L8.34035 20.9302C9.77074 21.7796 11.4095 22.2287 13.0796 22.2294L13.0801 21.0294ZM18.0886 14.5427C17.9547 14.4762 17.5649 14.2851 17.1782 14.0997C16.8104 13.9233 16.3926 13.7261 16.2366 13.6696L15.8281 14.798C15.9121 14.8284 16.258 14.9892 16.6593 15.1817C17.0416 15.365 17.4263 15.5536 17.5543 15.6172L18.0886 14.5427ZM18.2243 14.6087C18.1797 14.5873 18.1355 14.5661 18.0886 14.5428L17.5542 15.6172C17.6096 15.6448 17.661 15.6694 17.7049 15.6905L18.2243 14.6087ZM18.837 15.0739C18.7365 14.9072 18.5949 14.8093 18.5046 14.7544C18.4134 14.6988 18.3063 14.6481 18.2243 14.6087L17.7049 15.6905C17.752 15.7131 17.7881 15.7305 17.8196 15.7464C17.851 15.7623 17.8696 15.7726 17.8806 15.7794C17.892 15.7862 17.8869 15.7843 17.8743 15.7732C17.8607 15.7612 17.8346 15.7354 17.8094 15.6937L18.837 15.0739ZM18.7352 16.8235C18.862 16.4703 18.9275 16.1374 18.951 15.867C18.9627 15.7324 18.9648 15.6041 18.9558 15.4902C18.9494 15.4094 18.9319 15.2311 18.8368 15.0735L17.8097 15.6941C17.77 15.6284 17.7596 15.5772 17.7592 15.5757C17.757 15.5659 17.7582 15.5677 17.7595 15.5845C17.7621 15.6178 17.7629 15.678 17.7555 15.7631C17.7408 15.9321 17.6972 16.1634 17.6058 16.4179L18.7352 16.8235ZM16.4913 18.4508C16.8547 18.3969 17.3224 18.1955 17.716 17.9449C18.0946 17.7038 18.556 17.3224 18.7352 16.8235L17.6058 16.4179C17.5668 16.5264 17.3962 16.726 17.0715 16.9327C16.7617 17.1299 16.4549 17.2431 16.3152 17.2638L16.4913 18.4508ZM14.5735 18.3264C15.3196 18.5619 15.9907 18.5251 16.4914 18.4508L16.3152 17.2638C15.9136 17.3234 15.4432 17.3426 14.9348 17.1821L14.5735 18.3264ZM13.025 17.7578C13.6758 18.037 14.1848 18.2039 14.5738 18.3265L14.9345 17.182C14.5631 17.0649 14.0966 16.9118 13.4981 16.655L13.025 17.7578ZM8.34359 13.6882C8.65515 14.1321 10.3981 16.631 13.025 17.7578L13.4981 16.655C11.2157 15.6759 9.64093 13.4478 9.32581 12.9988L8.34359 13.6882ZM8.30971 13.6402C8.3084 13.6385 8.30831 13.6383 8.31007 13.6407C8.31166 13.6429 8.31397 13.6462 8.31724 13.6508C8.32392 13.6602 8.33235 13.6722 8.34359 13.6882L9.32581 12.9988C9.30776 12.9731 9.28445 12.9397 9.26803 12.918L8.30971 13.6402ZM8.30785 13.6377L8.30992 13.6405L9.26783 12.9177L9.26576 12.915L8.30785 13.6377ZM7.11976 10.5885C7.11976 11.3607 7.39764 12.0852 7.66673 12.6136C7.94009 13.1503 8.23169 13.5368 8.30786 13.6377L9.26575 12.9149C9.20353 12.8325 8.96161 12.5119 8.73604 12.069C8.50621 11.6177 8.31976 11.0901 8.31976 10.5885H7.11976ZM8.14844 8.06176C7.84473 8.3837 7.11976 9.1559 7.11976 10.5885H8.31976C8.31976 9.62522 8.77961 9.14144 9.02133 8.8852L8.14844 8.06176ZM8.19495 8.01212C8.18239 8.02575 8.16775 8.04128 8.14843 8.06176L9.02133 8.8852C9.03941 8.86604 9.05916 8.84511 9.07739 8.82533L8.19495 8.01212ZM9.33434 7.49328C9.02351 7.49328 8.56813 7.60723 8.19498 8.01209L9.07736 8.82536C9.18409 8.70956 9.29613 8.69328 9.33434 8.69328V7.49328ZM9.86585 7.50315C9.69758 7.4948 9.51028 7.49328 9.33434 7.49328V8.69328C9.50744 8.69328 9.66969 8.69489 9.8064 8.70167L9.86585 7.50315ZM9.89151 7.50314C9.88063 7.5032 9.87473 7.50323 9.86966 7.50319C9.865 7.50315 9.8644 7.50307 9.86621 7.50316L9.80604 8.70165C9.84457 8.70359 9.88132 8.70322 9.89817 8.70312L9.89151 7.50314ZM10.9786 8.31689C10.8613 8.03705 10.7028 7.79578 10.462 7.64721C10.2115 7.49263 9.9661 7.50273 9.8915 7.50314L9.89818 8.70312C9.91907 8.70301 9.92593 8.70306 9.93103 8.70325C9.93457 8.70339 9.92997 8.70339 9.92063 8.70189C9.91075 8.70031 9.89646 8.6972 9.87967 8.69125C9.86265 8.68521 9.84639 8.67742 9.83182 8.66843C9.80162 8.64979 9.79364 8.63538 9.80276 8.64768C9.81331 8.6619 9.83828 8.70056 9.87194 8.78085L10.9786 8.31689ZM11.2674 9.01298C11.1568 8.74555 11.0512 8.49016 10.9787 8.31707L9.87186 8.78066C9.94303 8.95059 10.0474 9.2029 10.1584 9.47149L11.2674 9.01298ZM11.7686 10.2106C11.7705 10.2145 11.7672 10.2079 11.7556 10.1816C11.7455 10.1588 11.7323 10.1284 11.7162 10.0907C11.6841 10.0156 11.6424 9.91655 11.5945 9.8019C11.4988 9.57279 11.3803 9.28625 11.2674 9.01298L10.1584 9.47148C10.375 9.99529 10.6393 10.6361 10.6965 10.7497L11.7686 10.2106ZM11.7904 11.2053C12.0014 10.7857 11.8717 10.4156 11.7684 10.2104L10.6966 10.7499C10.713 10.7826 10.7068 10.7801 10.7042 10.7559C10.7027 10.7421 10.7027 10.7246 10.706 10.7056C10.7094 10.6866 10.7149 10.6731 10.7183 10.6663L11.7904 11.2053ZM11.7556 11.2753C11.7673 11.2516 11.7784 11.2291 11.7903 11.2055L10.7184 10.6661C10.704 10.6947 10.6908 10.7213 10.6794 10.7446L11.7556 11.2753ZM11.447 11.7614C11.6113 11.5708 11.6872 11.414 11.7556 11.2753L10.6794 10.7446C10.6167 10.8717 10.5962 10.9105 10.5381 10.9779L11.447 11.7614ZM11.3212 11.9116C11.3671 11.8561 11.4081 11.8065 11.447 11.7614L10.538 10.9779C10.4897 11.034 10.4406 11.0935 10.3963 11.147L11.3212 11.9116ZM11.0218 12.2518C11.1263 12.1483 11.2376 12.0127 11.3212 11.9116L10.3963 11.147C10.2995 11.2641 10.2303 11.3468 10.1777 11.3989L11.0218 12.2518ZM11.0024 12.0526C10.9956 12.0408 11.0093 12.06 11.0151 12.1054C11.0216 12.1555 11.0145 12.2076 10.9979 12.252C10.9834 12.2907 10.967 12.3093 10.9707 12.3047C10.9762 12.2979 10.9871 12.2861 11.0218 12.2518L10.1777 11.3988C10.1285 11.4475 9.95913 11.6039 9.87397 11.8315C9.76703 12.1172 9.8188 12.4064 9.96737 12.6597L11.0024 12.0526ZM12.3394 13.7089C11.6324 13.0824 11.1451 12.2958 11.0024 12.0525L9.96738 12.6597C10.1303 12.9374 10.6938 13.8541 11.5436 14.607L12.3394 13.7089ZM14.1113 14.8204C13.7633 14.6704 13.1049 14.3872 12.3394 13.7089L11.5436 14.607C12.4513 15.4113 13.2472 15.7547 13.6364 15.9224L14.1113 14.8204ZM14.3142 14.9116C14.2532 14.8813 14.177 14.8487 14.1113 14.8204L13.6364 15.9225C13.7148 15.9562 13.7552 15.9739 13.7798 15.9861L14.3142 14.9116ZM14.1638 14.9874C14.1531 14.9996 14.1597 14.9891 14.1848 14.9737C14.2137 14.9561 14.2538 14.9401 14.2996 14.9346C14.3425 14.9294 14.3697 14.9359 14.372 14.9365C14.3724 14.9366 14.355 14.932 14.3144 14.9117L13.7796 15.986C13.9502 16.0709 14.1812 16.1576 14.4434 16.126C14.73 16.0914 14.9305 15.9327 15.0646 15.7803L14.1638 14.9874ZM14.9449 14.0299C14.7966 14.2511 14.3235 14.8059 14.1638 14.9875L15.0647 15.7802C15.2105 15.6145 15.7409 14.9976 15.9417 14.6981L14.9449 14.0299ZM16.2364 13.6696C16.1343 13.6327 15.9014 13.5435 15.6455 13.5726C15.3236 13.6091 15.0973 13.8026 14.9449 14.0299L15.9417 14.6981C15.9565 14.676 15.9512 14.6909 15.9188 14.7135C15.9019 14.7253 15.8803 14.7373 15.8545 14.747C15.8286 14.7568 15.8034 14.7623 15.781 14.7649C15.7383 14.7697 15.7155 14.7625 15.7286 14.7655C15.7437 14.769 15.7706 14.7772 15.8283 14.798L16.2364 13.6696Z" fill="#34C264" mask="url(#path-1-inside-1_2685_11979)"/>
</g>
<defs>
<clipPath id="clip0_2685_11979">
<rect width="26" height="26" fill="white"/>
</clipPath>
</defs>
</svg>
