<svg width="26" height="26" viewBox="0 0 26 26" fill="none" xmlns="http://www.w3.org/2000/svg">
<g clip-path="url(#clip0_2685_12510)">
<path fill-rule="evenodd" clip-rule="evenodd" d="M5.66667 6.51665C5.12359 6.51665 4.68334 6.9569 4.68334 7.49998V18.5C4.68334 19.0431 5.12359 19.4833 5.66667 19.4833H20.3333C20.8764 19.4833 21.3167 19.0431 21.3167 18.5V7.49998C21.3167 6.9569 20.8764 6.51665 20.3333 6.51665H5.66667ZM2.98334 7.49998C2.98334 6.01802 4.18471 4.81665 5.66667 4.81665H20.3333C21.8153 4.81665 23.0167 6.01802 23.0167 7.49998V18.5C23.0167 19.9819 21.8153 21.1833 20.3333 21.1833H5.66667C4.18471 21.1833 2.98334 19.9819 2.98334 18.5V7.49998Z" fill="#F9BD1A"/>
<path fill-rule="evenodd" clip-rule="evenodd" d="M3.11593 7.96088C3.3677 7.56467 3.893 7.44758 4.28922 7.69935L12.5091 12.9227C12.6563 13.0144 12.8264 13.0631 13 13.0631C13.1736 13.0631 13.3437 13.0144 13.491 12.9227C13.4916 12.9223 13.4922 12.9219 13.4929 12.9215L21.7108 7.69935C22.107 7.44758 22.6323 7.56467 22.8841 7.96088C23.1359 8.35709 23.0188 8.88239 22.6225 9.13417L14.3955 14.3621C13.9772 14.6241 13.4936 14.7631 13 14.7631C12.5064 14.7631 12.0228 14.6241 11.6045 14.3621L11.6 14.3592L3.37746 9.13417C2.98125 8.88239 2.86416 8.35709 3.11593 7.96088Z" fill="#F9BD1A"/>
</g>
<defs>
<clipPath id="clip0_2685_12510">
<rect width="26" height="26" fill="white"/>
</clipPath>
</defs>
</svg>
