<svg width="26" height="26" viewBox="0 0 26 26" fill="none" xmlns="http://www.w3.org/2000/svg">
<path fill-rule="evenodd" clip-rule="evenodd" d="M5.42065 4.12847C5.07794 4.12847 4.74926 4.26461 4.50693 4.50694C4.26459 4.74928 4.12845 5.07795 4.12845 5.42066V15.1507L6.9618 12.3173C7.12121 12.1579 7.33741 12.0684 7.56284 12.0684H13.9894C14.3321 12.0684 14.6608 11.9322 14.9032 11.6899C15.1455 11.4475 15.2816 11.1189 15.2816 10.7762V5.42066C15.2816 5.07795 15.1455 4.74928 14.9032 4.50694C14.6608 4.26461 14.3321 4.12847 13.9894 4.12847H5.42065ZM3.30485 3.30486C3.86599 2.74371 4.62707 2.42847 5.42065 2.42847H13.9894C14.783 2.42847 15.5441 2.74372 16.1052 3.30486C16.6664 3.86601 16.9816 4.62708 16.9816 5.42066V10.7762C16.9816 11.5697 16.6664 12.3308 16.1052 12.892C15.5441 13.4531 14.783 13.7684 13.9894 13.7684H7.91493L3.87949 17.8038C3.63639 18.0469 3.27079 18.1196 2.95317 17.988C2.63555 17.8565 2.42845 17.5465 2.42845 17.2027V5.42066C2.42845 4.62708 2.7437 3.86601 3.30485 3.30486Z" fill="#34C264"/>
<path fill-rule="evenodd" clip-rule="evenodd" d="M17.9822 10.0834C17.9822 9.61396 18.3628 9.2334 18.8322 9.2334H20.7765C21.5175 9.2334 22.2283 9.52779 22.7523 10.0518C23.2763 10.5758 23.5707 11.2866 23.5707 12.0276V22.7209C23.5707 23.0647 23.3636 23.3747 23.046 23.5062C22.7284 23.6378 22.3628 23.5651 22.1197 23.322L18.4802 19.6825H12.9995C12.2584 19.6825 11.5477 19.3881 11.0237 18.864C10.4997 18.34 10.2053 17.6293 10.2053 16.8882V15.9161C10.2053 15.4467 10.5858 15.0661 11.0553 15.0661C11.5247 15.0661 11.9053 15.4467 11.9053 15.9161V16.8882C11.9053 17.1784 12.0206 17.4568 12.2258 17.662C12.431 17.8672 12.7093 17.9825 12.9995 17.9825H18.8322C19.0577 17.9825 19.2739 18.072 19.4333 18.2314L21.8707 20.6688V12.0276C21.8707 11.7374 21.7554 11.4591 21.5502 11.2539C21.345 11.0487 21.0667 10.9334 20.7765 10.9334H18.8322C18.3628 10.9334 17.9822 10.5528 17.9822 10.0834Z" fill="#34C264"/>
</svg>
